<?xml version="1.0" encoding="UTF-8" standalone="no"?>
<!-- Created with Inkscape (http://www.inkscape.org/) -->

<svg
   width="46.0359mm"
   height="60.854519mm"
   viewBox="0 0 46.0359 60.854519"
   version="1.1"
   id="svg7287"
   inkscape:version="1.2.1 (0f2f062aeb, 2022-09-21, custom)"
   sodipodi:docname="logo2.0.svg"
   xmlns:inkscape="http://www.inkscape.org/namespaces/inkscape"
   xmlns:sodipodi="http://sodipodi.sourceforge.net/DTD/sodipodi-0.dtd"
   xmlns="http://www.w3.org/2000/svg"
   xmlns:svg="http://www.w3.org/2000/svg">
  <sodipodi:namedview
     id="namedview7289"
     pagecolor="#b4b4b4"
     bordercolor="#666666"
     borderopacity="1.0"
     inkscape:showpageshadow="2"
     inkscape:pageopacity="0"
     inkscape:pagecheckerboard="0"
     inkscape:deskcolor="#d1d1d1"
     inkscape:document-units="mm"
     showgrid="false"
     inkscape:zoom="0.2102413"
     inkscape:cx="-378.13693"
     inkscape:cy="223.55265"
     inkscape:window-width="1366"
     inkscape:window-height="739"
     inkscape:window-x="0"
     inkscape:window-y="0"
     inkscape:window-maximized="1"
     inkscape:current-layer="layer1" />
  <defs
     id="defs7284" />
  <g
     inkscape:label="Layer 1"
     inkscape:groupmode="layer"
     id="layer1"
     transform="translate(-82.80206,-89.934035)">
    <g
       id="g7795"
       transform="translate(-188.66304,90.157905)">
      <path
         id="path7042"
         style="fill:#40977b;fill-opacity:1;stroke:none;stroke-width:0.264583px;stroke-linecap:butt;stroke-linejoin:miter;stroke-opacity:1"
         d="m 308.8101,34.67116 a 39.6875,39.6875 0 0 1 -0.9038,2.23862 39.6875,39.6875 0 0 1 -1.0382,2.17972 39.6875,39.6875 0 0 1 -1.1689,2.11305 39.6875,39.6875 0 0 1 -1.295,2.03811 39.6875,39.6875 0 0 1 -0.059,0.0822 l 5.2183,17.30644 7.9375,10e-4 z" />
      <path
         id="path7044"
         style="fill:#40977b;fill-opacity:1;stroke:none;stroke-width:0.264583px;stroke-linecap:butt;stroke-linejoin:miter;stroke-opacity:1"
         d="m 291.836,-0.22387 -18.2635,54.5543 a 33.469444,33.469444 0 0 0 2.2892,-0.21549 33.469444,33.469444 0 0 0 2.2686,-0.37259 33.469444,33.469444 0 0 0 2.2381,-0.5271 33.469444,33.469444 0 0 0 1.3839,-0.42788 l 12.6876,-42.31163 7.4301,24.63984 a 33.469444,33.469444 0 0 0 0.3808,-0.79685 33.469444,33.469444 0 0 0 0.8475,-2.13734 33.469444,33.469444 0 0 0 0.6987,-2.19056 33.469444,33.469444 0 0 0 0.5467,-2.23346 33.469444,33.469444 0 0 0 0.3922,-2.26549 33.469444,33.469444 0 0 0 0.2357,-2.28617 l -7.844,-23.42958 z" />
      <path
         id="path7046"
         style="fill:#ffffff;fill-opacity:0.980392;stroke-width:1.35535;stroke-linejoin:round"
         d="m 304.9716,23.20468 a 33.469444,33.469444 0 0 1 -31.3991,31.12575 l -2.1074,6.29522 a 39.6875,39.6875 0 0 0 0.1307,0.005 39.6875,39.6875 0 0 0 37.2143,-25.96017 z" />
    </g>
  </g>
</svg>
